<svg width="18" height="18" viewBox="0 0 18 18" fill="none" xmlns="http://www.w3.org/2000/svg">
<path fill-rule="evenodd" clip-rule="evenodd" d="M9 5.25C6.92893 5.25 5.25 6.92893 5.25 9C5.25 11.0711 6.92893 12.75 9 12.75C11.0711 12.75 12.75 11.0711 12.75 9C12.7478 6.92982 11.0702 5.25215 9 5.25ZM9 11.5C7.61929 11.5 6.5 10.3807 6.5 9C6.5 7.61929 7.61929 6.5 9 6.5C10.3807 6.5 11.5 7.61929 11.5 9C11.5 10.3807 10.3807 11.5 9 11.5ZM15.875 9.16875C15.8781 9.05625 15.8781 8.94375 15.875 8.83125L17.0406 7.375C17.1646 7.21994 17.2075 7.01522 17.1562 6.82344C16.9652 6.10516 16.6793 5.41551 16.3062 4.77266C16.2072 4.60208 16.0334 4.48827 15.8375 4.46562L13.9844 4.25938C13.9073 4.17812 13.8292 4.1 13.75 4.025L13.5312 2.16719C13.5084 1.97109 13.3943 1.7973 13.2234 1.69844C12.5803 1.32605 11.8907 1.0405 11.1727 0.849219C10.9807 0.798197 10.776 0.841406 10.6211 0.965625L9.16875 2.125C9.05625 2.125 8.94375 2.125 8.83125 2.125L7.375 0.961719C7.21994 0.837772 7.01522 0.794856 6.82344 0.846094C6.10527 1.03752 5.41567 1.32335 4.77266 1.69609C4.60208 1.79514 4.48827 1.9689 4.46562 2.16484L4.25938 4.02109C4.17812 4.0987 4.1 4.17682 4.025 4.25547L2.16719 4.46875C1.97109 4.49156 1.7973 4.60569 1.69844 4.77656C1.32605 5.41966 1.0405 6.10925 0.849219 6.82734C0.798197 7.01925 0.841406 7.22398 0.965625 7.37891L2.125 8.83125C2.125 8.94375 2.125 9.05625 2.125 9.16875L0.961719 10.625C0.837772 10.7801 0.794856 10.9848 0.846094 11.1766C1.03718 11.8948 1.32302 12.5845 1.69609 13.2273C1.79514 13.3979 1.9689 13.5117 2.16484 13.5344L4.01797 13.7406C4.09557 13.8219 4.1737 13.9 4.25234 13.975L4.46875 15.8328C4.49156 16.0289 4.60569 16.2027 4.77656 16.3016C5.41966 16.6739 6.10925 16.9595 6.82734 17.1508C7.01925 17.2018 7.22398 17.1586 7.37891 17.0344L8.83125 15.875C8.94375 15.8781 9.05625 15.8781 9.16875 15.875L10.625 17.0406C10.7801 17.1646 10.9848 17.2075 11.1766 17.1562C11.8948 16.9652 12.5845 16.6793 13.2273 16.3062C13.3979 16.2072 13.5117 16.0334 13.5344 15.8375L13.7406 13.9844C13.8219 13.9073 13.9 13.8292 13.975 13.75L15.8328 13.5312C16.0289 13.5084 16.2027 13.3943 16.3016 13.2234C16.6739 12.5803 16.9595 11.8907 17.1508 11.1727C17.2018 10.9807 17.1586 10.776 17.0344 10.6211L15.875 9.16875ZM14.6172 8.66094C14.6305 8.88678 14.6305 9.11322 14.6172 9.33906C14.6079 9.49369 14.6563 9.64626 14.7531 9.76719L15.8617 11.1523C15.7345 11.5566 15.5716 11.9488 15.375 12.3242L13.6094 12.5242C13.4556 12.5413 13.3136 12.6148 13.2109 12.7305C13.0606 12.8996 12.9004 13.0598 12.7312 13.2102C12.6156 13.3129 12.5421 13.4548 12.525 13.6086L12.3289 15.3727C11.9535 15.5694 11.5613 15.7323 11.157 15.8594L9.77109 14.7508C9.66019 14.6622 9.52242 14.614 9.38047 14.6141H9.34297C9.11712 14.6273 8.89069 14.6273 8.66484 14.6141C8.51022 14.6048 8.35765 14.6532 8.23672 14.75L6.84766 15.8594C6.44339 15.7322 6.05122 15.5693 5.67578 15.3727L5.47578 13.6094C5.45871 13.4556 5.38522 13.3136 5.26953 13.2109C5.1004 13.0606 4.94023 12.9004 4.78984 12.7312C4.68713 12.6156 4.54517 12.5421 4.39141 12.525L2.62734 12.3281C2.43062 11.9527 2.26774 11.5606 2.14062 11.1562L3.24922 9.77031C3.34602 9.64938 3.39446 9.49681 3.38516 9.34219C3.37188 9.11634 3.37188 8.88991 3.38516 8.66406C3.39446 8.50944 3.34602 8.35687 3.24922 8.23594L2.14062 6.84766C2.26783 6.44339 2.43071 6.05122 2.62734 5.67578L4.39062 5.47578C4.54439 5.45871 4.68635 5.38522 4.78906 5.26953C4.93945 5.1004 5.09962 4.94023 5.26875 4.78984C5.3849 4.68707 5.45869 4.54478 5.47578 4.39062L5.67188 2.62734C6.04727 2.43062 6.43944 2.26774 6.84375 2.14062L8.22969 3.24922C8.35062 3.34602 8.50319 3.39446 8.65781 3.38516C8.88366 3.37188 9.11009 3.37188 9.33594 3.38516C9.49056 3.39446 9.64313 3.34602 9.76406 3.24922L11.1523 2.14062C11.5566 2.26783 11.9488 2.43071 12.3242 2.62734L12.5242 4.39062C12.5413 4.54439 12.6148 4.68635 12.7305 4.78906C12.8996 4.93945 13.0598 5.09962 13.2102 5.26875C13.3129 5.38444 13.4548 5.45793 13.6086 5.475L15.3727 5.67109C15.5694 6.04649 15.7323 6.43866 15.8594 6.84297L14.7508 8.22891C14.653 8.35086 14.6045 8.505 14.6148 8.66094H14.6172Z" fill="white"/>
</svg>
